<svg xmlns="http://www.w3.org/2000/svg" version="1.1" xmlns:xlink="http://www.w3.org/1999/xlink" xmlns:svgjs="http://svgjs.dev/svgjs" width="1015" height="865"><svg width="1015" height="865" viewBox="0 0 1015 865" fill="none" xmlns="http://www.w3.org/2000/svg">
<path fill-rule="evenodd" clip-rule="evenodd" d="M621.369 190.395C546.56 190.395 471.745 190.395 396.936 190.395C335.217 190.395 273.498 190.395 211.779 190.395C178.115 132.418 143.029 71.6963 109.365 13.7198C118.511 8.49321 127.591 5.36506 138.764 3.26662C262.242 1.30666 385.067 1.95998 508.545 1.95998C547.484 63.0561 585.499 128.053 621.369 190.395Z" fill="#A850BB"></path>
<path fill-rule="evenodd" clip-rule="evenodd" d="M1008.51 163.647C1010.95 173.131 1014.22 182.724 1014.22 192.077C907.612 192.077 795.304 191.701 688.698 191.701C645.551 131.604 608.144 68.0165 576.482 0.933675C683.469 -1.65852 790.074 1.14689 896.298 9.34989C913.479 15.303 927.506 25.5876 938.379 40.2094C965.44 79.384 988.815 120.534 1008.51 163.647Z" fill="#FC228F"></path>
<path fill-rule="evenodd" clip-rule="evenodd" d="M109.364 13.7198C143.029 71.6963 178.115 133.725 211.78 191.701C178.648 256.108 141.243 317.827 99.5634 376.858C65.5585 328.706 34.699 278.209 6.985 225.366C-2.93575 206.45 -1.70046 180.317 6.985 158.036C27.5582 122.503 50.2453 88.4525 70.8184 52.9192C81.9249 37.8928 93.1251 21.4739 109.364 13.7198Z" fill="#A3C512"></path>
<path fill-rule="evenodd" clip-rule="evenodd" d="M396.936 197.312C473.266 197.312 551.011 196.005 621.57 197.312C588.371 256.702 547.02 320.29 509.152 376.858C468.957 318.943 431.549 259.093 396.936 197.312Z" fill="#FCB231"></path>
<path fill-rule="evenodd" clip-rule="evenodd" d="M795.304 197.312C868.244 197.312 941.185 197.312 1014.13 197.312C1012.45 217.539 1005.91 236.245 994.488 253.42C922.018 374.058 848.141 493.754 772.861 612.512C769.221 607.591 763.278 598.92 760.728 595.177C710.422 521.352 711.729 520.699 660.644 430.161C703.326 351.357 748.212 273.743 795.304 197.312Z" fill="#FCB231"></path>
<path fill-rule="evenodd" clip-rule="evenodd" d="M503.542 668.62C476.11 721.586 447.125 773.952 416.574 825.723C410.239 834.93 401.823 840.541 391.325 842.555C382.185 836.243 373.769 828.758 366.077 820.112C289.13 691.439 211.512 563.328 133.228 435.772C169.254 371.696 207.594 309.04 248.25 247.809C336.294 386.525 421.388 526.796 503.542 668.62Z" fill="#FC1E8E"></path>
<path fill-rule="evenodd" clip-rule="evenodd" d="M733.585 674.231C657.783 676.077 582.968 674.209 509.152 668.62C546.419 609.134 586.636 547.589 624.183 487.379C656.196 538.338 656.196 538.338 693.436 601.711C707.602 625.819 722.182 650.057 733.585 674.231Z" fill="#A4C41B"></path>
<path fill-rule="evenodd" clip-rule="evenodd" d="M503.542 668.62C505.41 668.62 507.284 668.62 509.152 668.62C582.968 674.209 657.783 676.077 733.585 674.231C709.89 719.718 684.642 764.604 657.839 808.89C641.253 835.435 617.873 853.205 587.704 862.193C533.464 865.936 479.23 865.936 424.99 862.193C412.495 856.913 401.273 850.366 391.325 842.555C401.823 840.541 410.239 834.93 416.574 825.723C447.125 773.952 476.11 721.586 503.542 668.62Z" fill="#A94BB4"></path>
</svg><style>@media (prefers-color-scheme: light) { :root { filter: none; } }
@media (prefers-color-scheme: dark) { :root { filter: none; } }
</style></svg>